HIERARCHY
ROOT Hips
{
	OFFSET -0.20685154635 -22.8199434549 2.53627650759
	CHANNELS 6 Xposition Yposition Zposition Zrotation Yrotation Xrotation
	JOINT LeftHip
	{
		OFFSET 6.76402037876 -9.02003837746 -0.818842877786
		CHANNELS 3 Zrotation Yrotation Xrotation
		JOINT LeftKnee
		{
			OFFSET 3.27945440517 -36.192915826 -0.348151882256
			CHANNELS 3 Zrotation Yrotation Xrotation
			JOINT LeftFoot
			{
				OFFSET -1.31077992382 -38.053382743 -4.20097715881
				CHANNELS 3 Zrotation Yrotation Xrotation
				End LeftToe
				{
                                  OFFSET 2.47490940885 -5.38271057086 11.5925411367
				}
			}
		}
	}
	JOINT RightHip
	{
		OFFSET -6.56616895674 -8.92944550235 -0.56336854236
		CHANNELS 3 Zrotation Yrotation Xrotation
		JOINT RightKnee
		{
			OFFSET -3.68123426687 -36.9483511298 -0.72827800358
			CHANNELS 3 Zrotation Yrotation Xrotation
			JOINT RightFoot
			{
				OFFSET 1.54154162824 -38.1106092011 -4.03575181852
				CHANNELS 3 Zrotation Yrotation Xrotation
				End RightToe
				{
                                        OFFSET -2.27675847838 -4.64448979855 11.9645579952
				}
			}
		}
	}
	JOINT Waist
	{
		OFFSET -0.256257807693 10.7047900081 -2.38157365795
		CHANNELS 3 Zrotation Yrotation Xrotation
		JOINT Spine
		{
			OFFSET 0.563424356028 13.8221138911 0.232186993462
			CHANNELS 3 Zrotation Yrotation Xrotation
                        JOINT Chest
                        {
                            OFFSET 0.15148987643 5.34836809938 2.49522961031
                            CHANNELS 3 Zrotation Yrotation Xrotation
                            JOINT Neck
                            {
                                OFFSET -0.324732042825 21.3853559216 -4.48237091282
                                CHANNELS 3 Zrotation Yrotation Xrotation
                                End Head
                                {
                                        OFFSET -0.020530524741 26.8627858079 2.14167733897
                                }
                            }
                            JOINT LeftInnerShoulder
                            {
                                OFFSET 7.7069013548 12.0433266641 -3.42753498156
                                CHANNELS 3 Zrotation Yrotation Xrotation
                                JOINT LeftShoulder
                                {
                                        OFFSET 8.95186533583 2.87756928 -0.828909013665
                                        CHANNELS 3 Zrotation Yrotation Xrotation
                                        JOINT LeftElbow
                                        {
                                                OFFSET 24.9622175225 -1.08635704676 -2.54404596252
                                                CHANNELS 3 Zrotation Yrotation Xrotation
                                                End LeftWrist
                                                {
                                                        OFFSET 23.7238974045 0.770126513436 -0.130295148908
                                                }
                                        }
                                }
                            }
                            JOINT RightInnerShoulder
                            {
                                OFFSET -8.01122495579 11.7535832302 -3.89070751222
                                CHANNELS 3 Zrotation Yrotation Xrotation
                                JOINT RightShoulder
                                {
                                        OFFSET -9.3950270351 3.10197277934 -0.92218705338
                                        CHANNELS 3 Zrotation Yrotation Xrotation
                                        JOINT RightElbow
                                        {
                                                OFFSET -24.2912366089 -1.1809947006 -1.93981808606
                                                CHANNELS 3 Zrotation Yrotation Xrotation
                                                End RightWrist
                                                {
                                                        OFFSET -24.3191002178 0.661283629004 -0.554075970639
                                                }
                                        }
                                }
                            }
                        }
                }
            }
}
MOTION
Frames: 14
Frame Time: 0.0333333333333
0.00000 0.00000 0.00000 147.80736 81.28272 143.84111 -0.46288 2.92745 -20.66859 -9.91031 6.01955 36.75429 3.88462 10.41632 -15.24901 5.12034 -6.07842 -34.25535 3.01179 -13.40387 62.94513 18.91736 -15.29246 -13.40927 -3.45827 -0.99785 25.03608 -3.93949 1.94112 -1.10835 -2.00960 -1.69650 8.59819 -5.38977 9.93409 -13.39969 -6.18562 3.33121 2.66845 -51.63419 -3.15629 13.21517 -76.49407 -72.21199 102.54546 4.53405 -2.02244 -1.01879 58.73499 -5.63333 18.97170 20.03386 77.72940 43.43259
0.01903 -2.37838 0.03067 159.10946 74.91206 154.93329 0.10800 5.79088 -18.48053 -9.10481 8.95926 37.16915 2.42936 12.04298 -13.30909 2.69021 -4.14105 -41.06956 3.96675 -12.64305 57.43244 19.37313 -14.31039 -10.69057 -2.41718 -3.91847 27.08112 -3.81338 0.63508 -1.04186 -1.89230 -2.93375 7.89467 -6.60938 7.77584 -11.61394 -5.91971 0.30538 3.06672 -48.80415 -3.06217 13.12043 -89.73866 -71.06235 117.72419 2.69804 -2.26929 -0.34343 53.77878 -8.03939 17.12547 45.00040 82.44762 68.44366
-1.77407 -4.94567 0.00840 169.44863 70.73872 165.57255 0.05150 4.81501 -17.99425 -7.11822 7.93961 38.97042 2.91673 13.69801 -15.44613 1.54272 -2.46233 -45.31424 4.04645 -12.13435 46.02862 19.41303 -14.05184 -9.31103 -1.73070 -4.47338 29.53442 -3.27669 0.21496 -1.47735 -0.60304 -3.28116 7.66836 -6.85913 4.66083 -10.80347 -5.38720 -2.50553 2.96426 -47.21890 -3.57231 15.32649 -98.41814 -68.38966 123.90320 1.39925 -2.51413 0.19907 50.41614 -11.22385 16.05680 90.65348 83.59669 112.67094
-4.03641 -12.03804 -0.00024 170.51704 66.07186 167.46274 4.04867 8.95818 -21.79357 -6.04417 13.55397 51.05741 2.83541 12.73503 -18.87274 -2.19103 -2.48550 -47.53138 2.95749 -8.55337 34.81546 21.06601 -10.77098 -3.80417 -1.48607 -5.07992 31.31152 -2.27183 -1.58162 -0.11968 0.14157 -4.21554 6.80970 -8.73163 2.31779 -7.70630 -2.18568 -4.90151 4.18758 -49.85942 -6.82904 14.35164 -91.38007 -67.25141 119.77628 -2.85250 -2.74715 1.13489 53.31231 -10.78084 14.28188 124.84868 82.75666 149.83569
-6.84828 -19.49895 0.03011 170.18762 63.08980 167.64710 9.30820 13.05268 -26.53776 -2.71239 18.52946 69.81063 0.97109 10.94593 -16.71313 -4.89734 -3.74641 -49.44000 2.29095 -8.14899 28.03974 19.88869 -7.71363 2.63789 -1.44309 -5.39579 34.28894 -1.65591 -2.54162 2.01832 0.60546 -4.69349 5.28265 -8.77538 -0.02673 -6.77208 -3.27796 -5.89654 6.05615 -51.95105 -7.36297 11.69697 -77.98299 -70.55132 107.63393 -2.98367 -0.53375 1.66473 55.24636 -6.34758 13.08248 148.74145 83.16735 174.85946
-10.74399 -30.91640 0.04610 169.31139 63.31584 165.73511 11.75641 14.30213 -26.46298 -3.23634 16.67368 74.21528 -1.57715 8.78162 -13.04478 -5.73604 -3.90898 -52.23657 1.13657 -8.47323 26.93536 17.76611 -7.94661 5.10919 -1.88625 -6.04162 36.65879 -3.14720 -1.57661 4.01135 -0.03252 -4.41655 4.92748 -8.38578 -2.34514 -5.28922 -2.90736 -3.78195 7.02762 -54.84620 -7.49668 8.31374 -46.14392 -74.94054 68.54680 -4.88927 1.00343 1.19496 59.16952 -0.56412 13.43932 167.09537 88.45807 -171.83172
-14.08020 -41.15555 0.02912 168.74187 59.76206 165.68806 15.51439 15.48532 -27.58120 -3.30426 15.61784 84.53968 -1.85126 6.79285 -10.07824 -6.02710 -9.95996 -55.03209 3.16708 -16.28867 32.66469 15.09603 -7.15839 6.24653 -1.14628 -4.37387 39.69174 -3.83758 0.35269 4.32772 0.69060 -3.34476 4.01123 -6.48075 -6.65090 -3.18385 -6.34674 -5.36294 6.57845 -54.02392 -9.95634 5.90324 -11.09193 -68.53964 26.91120 -3.43161 4.31698 1.76732 58.12947 -1.70600 9.99180 -51.92347 82.20237 -37.67962
-19.19074 -53.48359 0.01514 168.46069 58.59778 162.24116 16.23506 14.84280 -28.21796 -5.81834 12.84868 87.15236 -0.22515 4.52748 -10.23108 -6.57475 -13.81528 -59.28784 -0.00459 -22.25527 45.86074 10.61096 -10.62102 4.82821 -1.31617 -3.84426 45.27052 -4.67661 2.87211 5.34380 0.17273 -2.78781 3.64616 0.42008 -9.68555 -4.11606 -12.12962 -5.43112 6.34618 -50.42224 -13.86544 3.07349 5.61193 -62.00927 5.64863 0.27237 9.27076 0.10296 53.41741 5.66570 7.85943 -29.44744 65.23027 -21.76959
-26.83130 -66.56322 0.01601 166.44913 56.24678 163.20886 15.31770 13.11260 -31.91135 -6.67379 10.60220 92.04003 3.47179 6.67996 -15.87654 -6.27094 -13.61737 -67.92552 -0.87144 -22.05357 54.76851 9.84948 -9.05018 1.98751 -0.12484 -4.62201 49.00652 -6.47307 4.61636 3.65429 -0.01760 -1.32956 3.59071 -0.35054 -15.55931 -2.92720 -10.92732 -8.48685 4.14250 -51.32627 -17.02817 1.68914 12.97396 -50.65269 -9.69344 -4.50252 16.89882 -1.87652 45.94590 15.45120 3.45960 -15.51953 50.30148 -14.43994
-33.39534 -77.39868 0.03007 165.08581 54.10128 161.99058 12.50609 11.52241 -34.33742 -6.41033 10.33615 104.76568 3.38170 6.13513 -11.07670 -6.51018 -11.78498 -75.54544 -3.00531 -20.80392 64.43095 6.29999 -8.85770 1.71850 1.50744 -6.56981 55.50735 -8.31219 5.49303 0.76437 -0.92050 -0.05540 2.16566 -1.66249 -19.07494 -7.12717 -10.06031 -16.58719 1.68881 -41.15177 -19.61575 -0.73983 11.39959 -39.15905 -12.88408 -8.72404 25.93189 -6.28613 30.32262 19.75723 -5.66608 -7.78996 32.30765 -18.95520
-43.22378 -88.94855 0.08895 159.68995 57.69057 161.20425 15.28928 14.05769 -38.07945 -7.33506 10.65569 110.64382 3.98657 6.28587 -11.07177 -4.45721 -13.90565 -86.27298 -5.18240 -22.76821 76.41845 8.60091 -12.00826 -0.48394 1.15010 -5.54974 60.50794 -11.83493 7.05333 -1.81712 -2.78861 2.56565 1.04146 -4.49591 -17.06484 -12.54800 -4.42985 -28.42342 -4.53220 -27.35398 -29.16866 -8.72838 4.80601 -19.38614 -13.07919 -16.93290 33.93181 -9.45268 12.56107 18.87127 -20.80877 1.27276 8.72292 -18.84865
-47.10549 -99.21536 0.15107 156.68040 64.79629 165.86695 20.05572 15.45339 -45.42197 -8.52386 9.39095 116.55979 2.78735 4.90170 -12.34012 -2.43974 -15.48342 -99.67265 -8.71185 -27.92073 92.66586 11.58070 -12.30952 -2.31110 -0.25073 -4.13240 65.48004 -16.42545 8.73406 -8.64287 -5.93637 4.62928 -0.25224 -7.22484 -18.49735 -20.22872 -3.93791 -29.21538 -7.41111 -19.04522 -30.34258 -11.82040 10.60615 -26.20552 -20.83279 -16.10131 36.15207 -11.17975 1.53441 15.84641 -27.45833 0.82884 8.49443 -29.07878
-49.87004 -105.59894 0.13469 151.12483 76.28027 166.44928 25.25474 14.07971 -47.31928 -12.39930 5.40635 113.42485 1.77644 6.68295 -11.00733 0.37765 -12.77164 -106.86181 -12.38010 -28.44603 108.77844 15.59371 -16.66243 -3.26782 -2.87806 -0.04469 65.74649 -21.14594 9.64369 -11.23975 -8.26265 6.83813 -0.95909 -10.94295 -15.96546 -25.57663 -1.36531 -33.86987 -11.12255 -4.82423 -27.68719 -16.34585 8.49232 -24.84331 -22.36608 -18.38709 40.74897 -13.87555 -7.03533 11.38288 -31.64035 1.19802 5.94770 -31.09024
-51.30117 -106.73159 0.12004 168.10389 79.37535 -172.31364 25.91044 14.20554 -47.37147 -16.19213 2.23682 110.48588 0.05543 5.82116 -12.02693 0.34146 -13.31992 -107.43847 -12.14250 -27.96905 114.57050 15.77916 -16.58935 -5.70667 -2.90502 0.60257 65.93497 -20.22096 9.85526 -12.21667 -8.56674 7.25266 -0.22981 -14.81954 -14.19316 -27.15145 6.37451 -33.69410 -14.73317 -1.59085 -28.55614 -20.44881 10.12838 -23.30686 -32.16395 -21.14010 39.20974 -15.42430 -9.59832 12.88502 -35.44664 -5.85676 11.05855 -42.82653
